<?xml version="1.0" encoding="UTF-8" standalone="no"?>
<!DOCTYPE svg PUBLIC "-//W3C//DTD SVG 1.1//EN"
 "http://www.w3.org/Graphics/SVG/1.1/DTD/svg11.dtd">
<!-- Generated by graphviz version 7.1.0 (0)
 -->
<!-- Pages: 1 -->
<svg width="628pt" height="1196pt"
 viewBox="0.00 0.00 627.85 1196.00" xmlns="http://www.w3.org/2000/svg" xmlns:xlink="http://www.w3.org/1999/xlink">
<g id="graph0" class="graph" transform="scale(1 1) rotate(0) translate(4 1192)">
<polygon fill="white" stroke="none" points="-4,4 -4,-1192 623.85,-1192 623.85,4 -4,4"/>
<!-- 1 -->
<g id="node1" class="node">
<title>1</title>
<ellipse fill="lightgrey" stroke="black" cx="517.5" cy="-1170" rx="42.49" ry="18"/>
<text text-anchor="middle" x="517.5" y="-1166.3" font-family="Times,serif" font-size="14.00">(cc 11 5)</text>
</g>
<!-- 10 -->
<g id="node2" class="node">
<title>10</title>
<ellipse fill="lightgrey" stroke="black" cx="474.5" cy="-1098" rx="42.49" ry="18"/>
<text text-anchor="middle" x="474.5" y="-1094.3" font-family="Times,serif" font-size="14.00">(cc 11 4)</text>
</g>
<!-- 1&#45;&gt;10 -->
<g id="edge1" class="edge">
<title>1&#45;&gt;10</title>
<path fill="none" stroke="black" d="M507.09,-1152.05C502.18,-1144.06 496.2,-1134.33 490.72,-1125.4"/>
<polygon fill="black" stroke="black" points="493.82,-1123.77 485.61,-1117.08 487.86,-1127.43 493.82,-1123.77"/>
</g>
<!-- 11 -->
<g id="node3" class="node">
<title>11</title>
<text text-anchor="middle" x="561.5" y="-1094.3" font-family="Times,serif" font-size="14.00" fill="indianred">(cc &#45;39 5)</text>
</g>
<!-- 1&#45;&gt;11 -->
<g id="edge2" class="edge">
<title>1&#45;&gt;11</title>
<path fill="none" stroke="black" d="M527.93,-1152.41C535.02,-1141.13 544.35,-1126.28 551.37,-1115.11"/>
<polygon fill="black" stroke="black" points="554.3,-1117.03 556.66,-1106.7 548.37,-1113.31 554.3,-1117.03"/>
</g>
<!-- 100 -->
<g id="node4" class="node">
<title>100</title>
<ellipse fill="lightgrey" stroke="black" cx="431.5" cy="-1026" rx="42.49" ry="18"/>
<text text-anchor="middle" x="431.5" y="-1022.3" font-family="Times,serif" font-size="14.00">(cc 11 3)</text>
</g>
<!-- 10&#45;&gt;100 -->
<g id="edge3" class="edge">
<title>10&#45;&gt;100</title>
<path fill="none" stroke="black" d="M464.09,-1080.05C459.18,-1072.06 453.2,-1062.33 447.72,-1053.4"/>
<polygon fill="black" stroke="black" points="450.82,-1051.77 442.61,-1045.08 444.86,-1055.43 450.82,-1051.77"/>
</g>
<!-- 101 -->
<g id="node5" class="node">
<title>101</title>
<text text-anchor="middle" x="518.5" y="-1022.3" font-family="Times,serif" font-size="14.00" fill="indianred">(cc &#45;14 4)</text>
</g>
<!-- 10&#45;&gt;101 -->
<g id="edge4" class="edge">
<title>10&#45;&gt;101</title>
<path fill="none" stroke="black" d="M484.93,-1080.41C492.02,-1069.13 501.35,-1054.28 508.37,-1043.11"/>
<polygon fill="black" stroke="black" points="511.3,-1045.03 513.66,-1034.7 505.37,-1041.31 511.3,-1045.03"/>
</g>
<!-- 1000 -->
<g id="node6" class="node">
<title>1000</title>
<ellipse fill="lightgrey" stroke="black" cx="312.5" cy="-954" rx="42.49" ry="18"/>
<text text-anchor="middle" x="312.5" y="-950.3" font-family="Times,serif" font-size="14.00">(cc 11 2)</text>
</g>
<!-- 100&#45;&gt;1000 -->
<g id="edge5" class="edge">
<title>100&#45;&gt;1000</title>
<path fill="none" stroke="black" d="M407.42,-1010.83C389.84,-1000.49 365.77,-986.33 346.27,-974.86"/>
<polygon fill="black" stroke="black" points="348.24,-971.97 337.85,-969.91 344.69,-978 348.24,-971.97"/>
</g>
<!-- 1001 -->
<g id="node7" class="node">
<title>1001</title>
<ellipse fill="lightgrey" stroke="black" cx="503.5" cy="-954" rx="38.19" ry="18"/>
<text text-anchor="middle" x="503.5" y="-950.3" font-family="Times,serif" font-size="14.00">(cc 1 3)</text>
</g>
<!-- 100&#45;&gt;1001 -->
<g id="edge6" class="edge">
<title>100&#45;&gt;1001</title>
<path fill="none" stroke="black" d="M447.84,-1009.12C457.27,-999.95 469.29,-988.26 479.75,-978.09"/>
<polygon fill="black" stroke="black" points="481.91,-980.88 486.64,-971.4 477.03,-975.86 481.91,-980.88"/>
</g>
<!-- 10000 -->
<g id="node8" class="node">
<title>10000</title>
<ellipse fill="lightgrey" stroke="black" cx="109.5" cy="-882" rx="42.49" ry="18"/>
<text text-anchor="middle" x="109.5" y="-878.3" font-family="Times,serif" font-size="14.00">(cc 11 1)</text>
</g>
<!-- 1000&#45;&gt;10000 -->
<g id="edge7" class="edge">
<title>1000&#45;&gt;10000</title>
<path fill="none" stroke="black" d="M280.33,-941.91C245.84,-930.01 190.88,-911.06 152.65,-897.88"/>
<polygon fill="black" stroke="black" points="153.88,-894.6 143.28,-894.65 151.59,-901.22 153.88,-894.6"/>
</g>
<!-- 10001 -->
<g id="node9" class="node">
<title>10001</title>
<ellipse fill="lightgrey" stroke="black" cx="312.5" cy="-882" rx="38.19" ry="18"/>
<text text-anchor="middle" x="312.5" y="-878.3" font-family="Times,serif" font-size="14.00">(cc 6 2)</text>
</g>
<!-- 1000&#45;&gt;10001 -->
<g id="edge8" class="edge">
<title>1000&#45;&gt;10001</title>
<path fill="none" stroke="black" d="M312.5,-935.7C312.5,-928.41 312.5,-919.73 312.5,-911.54"/>
<polygon fill="black" stroke="black" points="316,-911.62 312.5,-901.62 309,-911.62 316,-911.62"/>
</g>
<!-- 10010 -->
<g id="node53" class="node">
<title>10010</title>
<ellipse fill="lightgrey" stroke="black" cx="503.5" cy="-882" rx="38.19" ry="18"/>
<text text-anchor="middle" x="503.5" y="-878.3" font-family="Times,serif" font-size="14.00">(cc 1 2)</text>
</g>
<!-- 1001&#45;&gt;10010 -->
<g id="edge52" class="edge">
<title>1001&#45;&gt;10010</title>
<path fill="none" stroke="black" d="M503.5,-935.7C503.5,-928.41 503.5,-919.73 503.5,-911.54"/>
<polygon fill="black" stroke="black" points="507,-911.62 503.5,-901.62 500,-911.62 507,-911.62"/>
</g>
<!-- 10011 -->
<g id="node54" class="node">
<title>10011</title>
<text text-anchor="middle" x="583.5" y="-878.3" font-family="Times,serif" font-size="14.00" fill="indianred">(cc &#45;9 3)</text>
</g>
<!-- 1001&#45;&gt;10011 -->
<g id="edge53" class="edge">
<title>1001&#45;&gt;10011</title>
<path fill="none" stroke="black" d="M520.86,-937.81C534.76,-925.64 554.11,-908.72 567.61,-896.9"/>
<polygon fill="black" stroke="black" points="569.89,-899.56 575.11,-890.34 565.28,-894.29 569.89,-899.56"/>
</g>
<!-- 100000 -->
<g id="node10" class="node">
<title>100000</title>
<text text-anchor="middle" x="24.5" y="-806.3" font-family="Times,serif" font-size="14.00" fill="indianred">(cc 11 0)</text>
</g>
<!-- 10000&#45;&gt;100000 -->
<g id="edge9" class="edge">
<title>10000&#45;&gt;100000</title>
<path fill="none" stroke="black" d="M90.64,-865.46C75.69,-853.16 55.04,-836.15 40.8,-824.43"/>
<polygon fill="black" stroke="black" points="43.24,-821.9 33.3,-818.24 38.79,-827.3 43.24,-821.9"/>
</g>
<!-- 100001 -->
<g id="node11" class="node">
<title>100001</title>
<ellipse fill="lightgrey" stroke="black" cx="109.5" cy="-810" rx="42.49" ry="18"/>
<text text-anchor="middle" x="109.5" y="-806.3" font-family="Times,serif" font-size="14.00">(cc 10 1)</text>
</g>
<!-- 10000&#45;&gt;100001 -->
<g id="edge10" class="edge">
<title>10000&#45;&gt;100001</title>
<path fill="none" stroke="black" d="M109.5,-863.7C109.5,-856.41 109.5,-847.73 109.5,-839.54"/>
<polygon fill="black" stroke="black" points="113,-839.62 109.5,-829.62 106,-839.62 113,-839.62"/>
</g>
<!-- 100010 -->
<g id="node33" class="node">
<title>100010</title>
<ellipse fill="lightgrey" stroke="black" cx="265.5" cy="-810" rx="38.19" ry="18"/>
<text text-anchor="middle" x="265.5" y="-806.3" font-family="Times,serif" font-size="14.00">(cc 6 1)</text>
</g>
<!-- 10001&#45;&gt;100010 -->
<g id="edge32" class="edge">
<title>10001&#45;&gt;100010</title>
<path fill="none" stroke="black" d="M301.36,-864.41C295.86,-856.22 289.09,-846.14 282.93,-836.95"/>
<polygon fill="black" stroke="black" points="285.88,-835.08 277.4,-828.73 280.07,-838.98 285.88,-835.08"/>
</g>
<!-- 100011 -->
<g id="node34" class="node">
<title>100011</title>
<ellipse fill="lightgrey" stroke="black" cx="360.5" cy="-810" rx="38.19" ry="18"/>
<text text-anchor="middle" x="360.5" y="-806.3" font-family="Times,serif" font-size="14.00">(cc 1 2)</text>
</g>
<!-- 10001&#45;&gt;100011 -->
<g id="edge33" class="edge">
<title>10001&#45;&gt;100011</title>
<path fill="none" stroke="black" d="M323.88,-864.41C329.49,-856.22 336.4,-846.14 342.7,-836.95"/>
<polygon fill="black" stroke="black" points="345.58,-838.94 348.35,-828.72 339.81,-834.99 345.58,-838.94"/>
</g>
<!-- 1000010 -->
<g id="node12" class="node">
<title>1000010</title>
<text text-anchor="middle" x="28.5" y="-734.3" font-family="Times,serif" font-size="14.00" fill="indianred">(cc 10 0)</text>
</g>
<!-- 100001&#45;&gt;1000010 -->
<g id="edge11" class="edge">
<title>100001&#45;&gt;1000010</title>
<path fill="none" stroke="black" d="M91.52,-793.46C77.42,-781.28 57.98,-764.47 44.43,-752.77"/>
<polygon fill="black" stroke="black" points="46.77,-750.16 36.91,-746.27 42.19,-755.46 46.77,-750.16"/>
</g>
<!-- 1000011 -->
<g id="node13" class="node">
<title>1000011</title>
<ellipse fill="lightgrey" stroke="black" cx="109.5" cy="-738" rx="38.19" ry="18"/>
<text text-anchor="middle" x="109.5" y="-734.3" font-family="Times,serif" font-size="14.00">(cc 9 1)</text>
</g>
<!-- 100001&#45;&gt;1000011 -->
<g id="edge12" class="edge">
<title>100001&#45;&gt;1000011</title>
<path fill="none" stroke="black" d="M109.5,-791.7C109.5,-784.41 109.5,-775.73 109.5,-767.54"/>
<polygon fill="black" stroke="black" points="113,-767.62 109.5,-757.62 106,-767.62 113,-767.62"/>
</g>
<!-- 10000110 -->
<g id="node14" class="node">
<title>10000110</title>
<text text-anchor="middle" x="34.5" y="-662.3" font-family="Times,serif" font-size="14.00" fill="indianred">(cc 9 0)</text>
</g>
<!-- 1000011&#45;&gt;10000110 -->
<g id="edge13" class="edge">
<title>1000011&#45;&gt;10000110</title>
<path fill="none" stroke="black" d="M92.86,-721.46C79.92,-709.4 62.14,-692.8 49.62,-681.11"/>
<polygon fill="black" stroke="black" points="52.04,-678.58 42.34,-674.31 47.26,-683.7 52.04,-678.58"/>
</g>
<!-- 10000111 -->
<g id="node15" class="node">
<title>10000111</title>
<ellipse fill="lightgrey" stroke="black" cx="112.5" cy="-666" rx="38.19" ry="18"/>
<text text-anchor="middle" x="112.5" y="-662.3" font-family="Times,serif" font-size="14.00">(cc 8 1)</text>
</g>
<!-- 1000011&#45;&gt;10000111 -->
<g id="edge14" class="edge">
<title>1000011&#45;&gt;10000111</title>
<path fill="none" stroke="black" d="M110.24,-719.7C110.55,-712.41 110.93,-703.73 111.28,-695.54"/>
<polygon fill="black" stroke="black" points="114.77,-695.76 111.7,-685.62 107.78,-695.46 114.77,-695.76"/>
</g>
<!-- 100001110 -->
<g id="node16" class="node">
<title>100001110</title>
<text text-anchor="middle" x="38.5" y="-590.3" font-family="Times,serif" font-size="14.00" fill="indianred">(cc 8 0)</text>
</g>
<!-- 10000111&#45;&gt;100001110 -->
<g id="edge15" class="edge">
<title>10000111&#45;&gt;100001110</title>
<path fill="none" stroke="black" d="M96.08,-649.46C83.32,-637.4 65.77,-620.8 53.42,-609.11"/>
<polygon fill="black" stroke="black" points="55.91,-606.65 46.24,-602.32 51.1,-611.74 55.91,-606.65"/>
</g>
<!-- 100001111 -->
<g id="node17" class="node">
<title>100001111</title>
<ellipse fill="lightgrey" stroke="black" cx="116.5" cy="-594" rx="38.19" ry="18"/>
<text text-anchor="middle" x="116.5" y="-590.3" font-family="Times,serif" font-size="14.00">(cc 7 1)</text>
</g>
<!-- 10000111&#45;&gt;100001111 -->
<g id="edge16" class="edge">
<title>10000111&#45;&gt;100001111</title>
<path fill="none" stroke="black" d="M113.49,-647.7C113.91,-640.41 114.4,-631.73 114.87,-623.54"/>
<polygon fill="black" stroke="black" points="118.36,-623.8 115.44,-613.62 111.37,-623.4 118.36,-623.8"/>
</g>
<!-- 1000011110 -->
<g id="node18" class="node">
<title>1000011110</title>
<text text-anchor="middle" x="79.5" y="-518.3" font-family="Times,serif" font-size="14.00" fill="indianred">(cc 7 0)</text>
</g>
<!-- 100001111&#45;&gt;1000011110 -->
<g id="edge17" class="edge">
<title>100001111&#45;&gt;1000011110</title>
<path fill="none" stroke="black" d="M107.54,-576.05C101.64,-564.88 93.95,-550.33 88.11,-539.3"/>
<polygon fill="black" stroke="black" points="91.33,-537.9 83.57,-530.69 85.15,-541.17 91.33,-537.9"/>
</g>
<!-- 1000011111 -->
<g id="node19" class="node">
<title>1000011111</title>
<ellipse fill="lightgrey" stroke="black" cx="157.5" cy="-522" rx="38.19" ry="18"/>
<text text-anchor="middle" x="157.5" y="-518.3" font-family="Times,serif" font-size="14.00">(cc 6 1)</text>
</g>
<!-- 100001111&#45;&gt;1000011111 -->
<g id="edge18" class="edge">
<title>100001111&#45;&gt;1000011111</title>
<path fill="none" stroke="black" d="M126.22,-576.41C130.97,-568.3 136.79,-558.35 142.13,-549.25"/>
<polygon fill="black" stroke="black" points="145.05,-551.17 147.09,-540.78 139.01,-547.64 145.05,-551.17"/>
</g>
<!-- 10000111110 -->
<g id="node20" class="node">
<title>10000111110</title>
<text text-anchor="middle" x="157.5" y="-446.3" font-family="Times,serif" font-size="14.00" fill="indianred">(cc 6 0)</text>
</g>
<!-- 1000011111&#45;&gt;10000111110 -->
<g id="edge19" class="edge">
<title>1000011111&#45;&gt;10000111110</title>
<path fill="none" stroke="black" d="M157.5,-503.7C157.5,-492.99 157.5,-479.28 157.5,-468.53"/>
<polygon fill="black" stroke="black" points="161,-468.8 157.5,-458.8 154,-468.8 161,-468.8"/>
</g>
<!-- 10000111111 -->
<g id="node21" class="node">
<title>10000111111</title>
<ellipse fill="lightgrey" stroke="black" cx="235.5" cy="-450" rx="38.19" ry="18"/>
<text text-anchor="middle" x="235.5" y="-446.3" font-family="Times,serif" font-size="14.00">(cc 5 1)</text>
</g>
<!-- 1000011111&#45;&gt;10000111111 -->
<g id="edge20" class="edge">
<title>1000011111&#45;&gt;10000111111</title>
<path fill="none" stroke="black" d="M174.81,-505.46C185.11,-496.22 198.37,-484.32 209.87,-474"/>
<polygon fill="black" stroke="black" points="212.01,-476.79 217.11,-467.5 207.33,-471.58 212.01,-476.79"/>
</g>
<!-- 100001111110 -->
<g id="node22" class="node">
<title>100001111110</title>
<text text-anchor="middle" x="235.5" y="-374.3" font-family="Times,serif" font-size="14.00" fill="indianred">(cc 5 0)</text>
</g>
<!-- 10000111111&#45;&gt;100001111110 -->
<g id="edge21" class="edge">
<title>10000111111&#45;&gt;100001111110</title>
<path fill="none" stroke="black" d="M235.5,-431.7C235.5,-420.99 235.5,-407.28 235.5,-396.53"/>
<polygon fill="black" stroke="black" points="239,-396.8 235.5,-386.8 232,-396.8 239,-396.8"/>
</g>
<!-- 100001111111 -->
<g id="node23" class="node">
<title>100001111111</title>
<ellipse fill="lightgrey" stroke="black" cx="313.5" cy="-378" rx="38.19" ry="18"/>
<text text-anchor="middle" x="313.5" y="-374.3" font-family="Times,serif" font-size="14.00">(cc 4 1)</text>
</g>
<!-- 10000111111&#45;&gt;100001111111 -->
<g id="edge22" class="edge">
<title>10000111111&#45;&gt;100001111111</title>
<path fill="none" stroke="black" d="M252.81,-433.46C263.11,-424.22 276.37,-412.32 287.87,-402"/>
<polygon fill="black" stroke="black" points="290.01,-404.79 295.11,-395.5 285.33,-399.58 290.01,-404.79"/>
</g>
<!-- 1000011111110 -->
<g id="node24" class="node">
<title>1000011111110</title>
<text text-anchor="middle" x="271.5" y="-302.3" font-family="Times,serif" font-size="14.00" fill="indianred">(cc 4 0)</text>
</g>
<!-- 100001111111&#45;&gt;1000011111110 -->
<g id="edge23" class="edge">
<title>100001111111&#45;&gt;1000011111110</title>
<path fill="none" stroke="black" d="M303.55,-360.41C296.78,-349.13 287.87,-334.28 281.16,-323.11"/>
<polygon fill="black" stroke="black" points="284.28,-321.49 276.13,-314.72 278.28,-325.1 284.28,-321.49"/>
</g>
<!-- 1000011111111 -->
<g id="node25" class="node">
<title>1000011111111</title>
<ellipse fill="lightgrey" stroke="black" cx="349.5" cy="-306" rx="38.19" ry="18"/>
<text text-anchor="middle" x="349.5" y="-302.3" font-family="Times,serif" font-size="14.00">(cc 3 1)</text>
</g>
<!-- 100001111111&#45;&gt;1000011111111 -->
<g id="edge24" class="edge">
<title>100001111111&#45;&gt;1000011111111</title>
<path fill="none" stroke="black" d="M322.21,-360.05C326.24,-352.23 331.12,-342.75 335.63,-333.98"/>
<polygon fill="black" stroke="black" points="338.71,-335.63 340.17,-325.13 332.49,-332.43 338.71,-335.63"/>
</g>
<!-- 10000111111110 -->
<g id="node26" class="node">
<title>10000111111110</title>
<text text-anchor="middle" x="310.5" y="-230.3" font-family="Times,serif" font-size="14.00" fill="indianred">(cc 3 0)</text>
</g>
<!-- 1000011111111&#45;&gt;10000111111110 -->
<g id="edge25" class="edge">
<title>1000011111111&#45;&gt;10000111111110</title>
<path fill="none" stroke="black" d="M340.26,-288.41C334.04,-277.25 325.87,-262.59 319.67,-251.46"/>
<polygon fill="black" stroke="black" points="322.74,-249.78 314.82,-242.75 316.62,-253.18 322.74,-249.78"/>
</g>
<!-- 10000111111111 -->
<g id="node27" class="node">
<title>10000111111111</title>
<ellipse fill="lightgrey" stroke="black" cx="388.5" cy="-234" rx="38.19" ry="18"/>
<text text-anchor="middle" x="388.5" y="-230.3" font-family="Times,serif" font-size="14.00">(cc 2 1)</text>
</g>
<!-- 1000011111111&#45;&gt;10000111111111 -->
<g id="edge26" class="edge">
<title>1000011111111&#45;&gt;10000111111111</title>
<path fill="none" stroke="black" d="M358.74,-288.41C363.26,-280.3 368.8,-270.35 373.88,-261.25"/>
<polygon fill="black" stroke="black" points="376.78,-263.23 378.59,-252.79 370.66,-259.82 376.78,-263.23"/>
</g>
<!-- 100001111111110 -->
<g id="node28" class="node">
<title>100001111111110</title>
<text text-anchor="middle" x="349.5" y="-158.3" font-family="Times,serif" font-size="14.00" fill="indianred">(cc 2 0)</text>
</g>
<!-- 10000111111111&#45;&gt;100001111111110 -->
<g id="edge27" class="edge">
<title>10000111111111&#45;&gt;100001111111110</title>
<path fill="none" stroke="black" d="M379.26,-216.41C373.04,-205.25 364.87,-190.59 358.67,-179.46"/>
<polygon fill="black" stroke="black" points="361.74,-177.78 353.82,-170.75 355.62,-181.18 361.74,-177.78"/>
</g>
<!-- 100001111111111 -->
<g id="node29" class="node">
<title>100001111111111</title>
<ellipse fill="lightgrey" stroke="black" cx="427.5" cy="-162" rx="38.19" ry="18"/>
<text text-anchor="middle" x="427.5" y="-158.3" font-family="Times,serif" font-size="14.00">(cc 1 1)</text>
</g>
<!-- 10000111111111&#45;&gt;100001111111111 -->
<g id="edge28" class="edge">
<title>10000111111111&#45;&gt;100001111111111</title>
<path fill="none" stroke="black" d="M397.74,-216.41C402.26,-208.3 407.8,-198.35 412.88,-189.25"/>
<polygon fill="black" stroke="black" points="415.78,-191.23 417.59,-180.79 409.66,-187.82 415.78,-191.23"/>
</g>
<!-- 1000011111111110 -->
<g id="node30" class="node">
<title>1000011111111110</title>
<text text-anchor="middle" x="388.5" y="-86.3" font-family="Times,serif" font-size="14.00" fill="indianred">(cc 1 0)</text>
</g>
<!-- 100001111111111&#45;&gt;1000011111111110 -->
<g id="edge29" class="edge">
<title>100001111111111&#45;&gt;1000011111111110</title>
<path fill="none" stroke="black" d="M418.26,-144.41C412.04,-133.25 403.87,-118.59 397.67,-107.46"/>
<polygon fill="black" stroke="black" points="400.74,-105.78 392.82,-98.75 394.62,-109.18 400.74,-105.78"/>
</g>
<!-- 1000011111111111 -->
<g id="node31" class="node">
<title>1000011111111111</title>
<ellipse fill="lightgreen" stroke="black" cx="466.5" cy="-90" rx="38.19" ry="18"/>
<text text-anchor="middle" x="466.5" y="-86.3" font-family="Times,serif" font-size="14.00">(cc 0 1)</text>
</g>
<!-- 100001111111111&#45;&gt;1000011111111111 -->
<g id="edge30" class="edge">
<title>100001111111111&#45;&gt;1000011111111111</title>
<path fill="none" stroke="black" d="M436.74,-144.41C441.26,-136.3 446.8,-126.35 451.88,-117.25"/>
<polygon fill="black" stroke="black" points="454.78,-119.23 456.59,-108.79 448.66,-115.82 454.78,-119.23"/>
</g>
<!-- 10000111111111111 -->
<g id="node32" class="node">
<title>10000111111111111</title>
<text text-anchor="middle" x="466.5" y="-14.3" font-family="Times,serif" font-size="14.00">1</text>
</g>
<!-- 1000011111111111&#45;&gt;10000111111111111 -->
<g id="edge31" class="edge">
<title>1000011111111111&#45;&gt;10000111111111111</title>
<path fill="none" stroke="black" d="M466.5,-71.7C466.5,-64.21 466.5,-55.26 466.5,-46.88"/>
<polygon fill="black" stroke="black" points="470,-47.14 466.5,-37.14 463,-47.14 470,-47.14"/>
</g>
<!-- 1000100 -->
<g id="node35" class="node">
<title>1000100</title>
<text text-anchor="middle" x="187.5" y="-734.3" font-family="Times,serif" font-size="14.00" fill="indianred">(cc 6 0)</text>
</g>
<!-- 100010&#45;&gt;1000100 -->
<g id="edge34" class="edge">
<title>100010&#45;&gt;1000100</title>
<path fill="none" stroke="black" d="M248.19,-793.46C234.61,-781.28 215.89,-764.47 202.84,-752.77"/>
<polygon fill="black" stroke="black" points="205.41,-750.37 195.63,-746.29 200.73,-755.58 205.41,-750.37"/>
</g>
<!-- 1000101 -->
<g id="node36" class="node">
<title>1000101</title>
<ellipse fill="lightgrey" stroke="black" cx="265.5" cy="-738" rx="38.19" ry="18"/>
<text text-anchor="middle" x="265.5" y="-734.3" font-family="Times,serif" font-size="14.00">(cc 5 1)</text>
</g>
<!-- 100010&#45;&gt;1000101 -->
<g id="edge35" class="edge">
<title>100010&#45;&gt;1000101</title>
<path fill="none" stroke="black" d="M265.5,-791.7C265.5,-784.41 265.5,-775.73 265.5,-767.54"/>
<polygon fill="black" stroke="black" points="269,-767.62 265.5,-757.62 262,-767.62 269,-767.62"/>
</g>
<!-- 1000110 -->
<g id="node48" class="node">
<title>1000110</title>
<ellipse fill="lightgrey" stroke="black" cx="360.5" cy="-738" rx="38.19" ry="18"/>
<text text-anchor="middle" x="360.5" y="-734.3" font-family="Times,serif" font-size="14.00">(cc 1 1)</text>
</g>
<!-- 100011&#45;&gt;1000110 -->
<g id="edge47" class="edge">
<title>100011&#45;&gt;1000110</title>
<path fill="none" stroke="black" d="M360.5,-791.7C360.5,-784.41 360.5,-775.73 360.5,-767.54"/>
<polygon fill="black" stroke="black" points="364,-767.62 360.5,-757.62 357,-767.62 364,-767.62"/>
</g>
<!-- 1000111 -->
<g id="node49" class="node">
<title>1000111</title>
<text text-anchor="middle" x="440.5" y="-734.3" font-family="Times,serif" font-size="14.00" fill="indianred">(cc &#45;4 2)</text>
</g>
<!-- 100011&#45;&gt;1000111 -->
<g id="edge48" class="edge">
<title>100011&#45;&gt;1000111</title>
<path fill="none" stroke="black" d="M377.86,-793.81C391.76,-781.64 411.11,-764.72 424.61,-752.9"/>
<polygon fill="black" stroke="black" points="426.89,-755.56 432.11,-746.34 422.28,-750.29 426.89,-755.56"/>
</g>
<!-- 10001010 -->
<g id="node37" class="node">
<title>10001010</title>
<text text-anchor="middle" x="198.5" y="-662.3" font-family="Times,serif" font-size="14.00" fill="indianred">(cc 5 0)</text>
</g>
<!-- 1000101&#45;&gt;10001010 -->
<g id="edge36" class="edge">
<title>1000101&#45;&gt;10001010</title>
<path fill="none" stroke="black" d="M250.3,-721.12C238.84,-709.15 223.27,-692.88 212.2,-681.31"/>
<polygon fill="black" stroke="black" points="214.94,-679.11 205.5,-674.31 209.88,-683.95 214.94,-679.11"/>
</g>
<!-- 10001011 -->
<g id="node38" class="node">
<title>10001011</title>
<ellipse fill="lightgrey" stroke="black" cx="276.5" cy="-666" rx="38.19" ry="18"/>
<text text-anchor="middle" x="276.5" y="-662.3" font-family="Times,serif" font-size="14.00">(cc 4 1)</text>
</g>
<!-- 1000101&#45;&gt;10001011 -->
<g id="edge37" class="edge">
<title>1000101&#45;&gt;10001011</title>
<path fill="none" stroke="black" d="M268.22,-719.7C269.38,-712.32 270.76,-703.52 272.06,-695.25"/>
<polygon fill="black" stroke="black" points="275.48,-696.02 273.58,-685.6 268.57,-694.93 275.48,-696.02"/>
</g>
<!-- 100010110 -->
<g id="node39" class="node">
<title>100010110</title>
<text text-anchor="middle" x="216.5" y="-590.3" font-family="Times,serif" font-size="14.00" fill="indianred">(cc 4 0)</text>
</g>
<!-- 10001011&#45;&gt;100010110 -->
<g id="edge38" class="edge">
<title>10001011&#45;&gt;100010110</title>
<path fill="none" stroke="black" d="M262.58,-648.76C252.62,-637.14 239.3,-621.61 229.55,-610.22"/>
<polygon fill="black" stroke="black" points="232.21,-607.96 223.05,-602.64 226.9,-612.51 232.21,-607.96"/>
</g>
<!-- 100010111 -->
<g id="node40" class="node">
<title>100010111</title>
<ellipse fill="lightgrey" stroke="black" cx="294.5" cy="-594" rx="38.19" ry="18"/>
<text text-anchor="middle" x="294.5" y="-590.3" font-family="Times,serif" font-size="14.00">(cc 3 1)</text>
</g>
<!-- 10001011&#45;&gt;100010111 -->
<g id="edge39" class="edge">
<title>10001011&#45;&gt;100010111</title>
<path fill="none" stroke="black" d="M280.95,-647.7C282.85,-640.32 285.11,-631.52 287.24,-623.25"/>
<polygon fill="black" stroke="black" points="290.62,-624.13 289.72,-613.57 283.84,-622.38 290.62,-624.13"/>
</g>
<!-- 1000101110 -->
<g id="node41" class="node">
<title>1000101110</title>
<text text-anchor="middle" x="279.5" y="-518.3" font-family="Times,serif" font-size="14.00" fill="indianred">(cc 3 0)</text>
</g>
<!-- 100010111&#45;&gt;1000101110 -->
<g id="edge40" class="edge">
<title>100010111&#45;&gt;1000101110</title>
<path fill="none" stroke="black" d="M290.79,-575.7C288.5,-564.99 285.56,-551.28 283.26,-540.53"/>
<polygon fill="black" stroke="black" points="286.68,-539.81 281.16,-530.77 279.84,-541.28 286.68,-539.81"/>
</g>
<!-- 1000101111 -->
<g id="node42" class="node">
<title>1000101111</title>
<ellipse fill="lightgrey" stroke="black" cx="357.5" cy="-522" rx="38.19" ry="18"/>
<text text-anchor="middle" x="357.5" y="-518.3" font-family="Times,serif" font-size="14.00">(cc 2 1)</text>
</g>
<!-- 100010111&#45;&gt;1000101111 -->
<g id="edge41" class="edge">
<title>100010111&#45;&gt;1000101111</title>
<path fill="none" stroke="black" d="M308.8,-577.12C316.77,-568.26 326.87,-557.04 335.8,-547.12"/>
<polygon fill="black" stroke="black" points="338.16,-549.72 342.25,-539.95 332.96,-545.04 338.16,-549.72"/>
</g>
<!-- 10001011110 -->
<g id="node43" class="node">
<title>10001011110</title>
<text text-anchor="middle" x="328.5" y="-446.3" font-family="Times,serif" font-size="14.00" fill="indianred">(cc 2 0)</text>
</g>
<!-- 1000101111&#45;&gt;10001011110 -->
<g id="edge42" class="edge">
<title>1000101111&#45;&gt;10001011110</title>
<path fill="none" stroke="black" d="M350.48,-504.05C345.9,-493 339.95,-478.64 335.4,-467.65"/>
<polygon fill="black" stroke="black" points="338.77,-466.65 331.71,-458.75 332.31,-469.33 338.77,-466.65"/>
</g>
<!-- 10001011111 -->
<g id="node44" class="node">
<title>10001011111</title>
<ellipse fill="lightgrey" stroke="black" cx="406.5" cy="-450" rx="38.19" ry="18"/>
<text text-anchor="middle" x="406.5" y="-446.3" font-family="Times,serif" font-size="14.00">(cc 1 1)</text>
</g>
<!-- 1000101111&#45;&gt;10001011111 -->
<g id="edge43" class="edge">
<title>1000101111&#45;&gt;10001011111</title>
<path fill="none" stroke="black" d="M369.11,-504.41C374.91,-496.13 382.05,-485.92 388.54,-476.66"/>
<polygon fill="black" stroke="black" points="391.24,-478.91 394.1,-468.71 385.5,-474.9 391.24,-478.91"/>
</g>
<!-- 100010111110 -->
<g id="node45" class="node">
<title>100010111110</title>
<text text-anchor="middle" x="391.5" y="-374.3" font-family="Times,serif" font-size="14.00" fill="indianred">(cc 1 0)</text>
</g>
<!-- 10001011111&#45;&gt;100010111110 -->
<g id="edge44" class="edge">
<title>10001011111&#45;&gt;100010111110</title>
<path fill="none" stroke="black" d="M402.79,-431.7C400.5,-420.99 397.56,-407.28 395.26,-396.53"/>
<polygon fill="black" stroke="black" points="398.68,-395.81 393.16,-386.77 391.84,-397.28 398.68,-395.81"/>
</g>
<!-- 100010111111 -->
<g id="node46" class="node">
<title>100010111111</title>
<ellipse fill="lightgreen" stroke="black" cx="469.5" cy="-378" rx="38.19" ry="18"/>
<text text-anchor="middle" x="469.5" y="-374.3" font-family="Times,serif" font-size="14.00">(cc 0 1)</text>
</g>
<!-- 10001011111&#45;&gt;100010111111 -->
<g id="edge45" class="edge">
<title>10001011111&#45;&gt;100010111111</title>
<path fill="none" stroke="black" d="M420.8,-433.12C428.77,-424.26 438.87,-413.04 447.8,-403.12"/>
<polygon fill="black" stroke="black" points="450.16,-405.72 454.25,-395.95 444.96,-401.04 450.16,-405.72"/>
</g>
<!-- 1000101111111 -->
<g id="node47" class="node">
<title>1000101111111</title>
<text text-anchor="middle" x="469.5" y="-302.3" font-family="Times,serif" font-size="14.00">1</text>
</g>
<!-- 100010111111&#45;&gt;1000101111111 -->
<g id="edge46" class="edge">
<title>100010111111&#45;&gt;1000101111111</title>
<path fill="none" stroke="black" d="M469.5,-359.7C469.5,-352.21 469.5,-343.26 469.5,-334.88"/>
<polygon fill="black" stroke="black" points="473,-335.14 469.5,-325.14 466,-335.14 473,-335.14"/>
</g>
<!-- 10001100 -->
<g id="node50" class="node">
<title>10001100</title>
<text text-anchor="middle" x="358.5" y="-662.3" font-family="Times,serif" font-size="14.00" fill="indianred">(cc 1 0)</text>
</g>
<!-- 1000110&#45;&gt;10001100 -->
<g id="edge49" class="edge">
<title>1000110&#45;&gt;10001100</title>
<path fill="none" stroke="black" d="M360.01,-719.7C359.7,-708.99 359.31,-695.28 359,-684.53"/>
<polygon fill="black" stroke="black" points="362.51,-684.7 358.72,-674.8 355.51,-684.9 362.51,-684.7"/>
</g>
<!-- 10001101 -->
<g id="node51" class="node">
<title>10001101</title>
<ellipse fill="lightgreen" stroke="black" cx="436.5" cy="-666" rx="38.19" ry="18"/>
<text text-anchor="middle" x="436.5" y="-662.3" font-family="Times,serif" font-size="14.00">(cc 0 1)</text>
</g>
<!-- 1000110&#45;&gt;10001101 -->
<g id="edge50" class="edge">
<title>1000110&#45;&gt;10001101</title>
<path fill="none" stroke="black" d="M377.37,-721.46C387.4,-712.22 400.32,-700.32 411.53,-690"/>
<polygon fill="black" stroke="black" points="413.58,-692.87 418.57,-683.52 408.84,-687.72 413.58,-692.87"/>
</g>
<!-- 100011011 -->
<g id="node52" class="node">
<title>100011011</title>
<text text-anchor="middle" x="436.5" y="-590.3" font-family="Times,serif" font-size="14.00">1</text>
</g>
<!-- 10001101&#45;&gt;100011011 -->
<g id="edge51" class="edge">
<title>10001101&#45;&gt;100011011</title>
<path fill="none" stroke="black" d="M436.5,-647.7C436.5,-640.21 436.5,-631.26 436.5,-622.88"/>
<polygon fill="black" stroke="black" points="440,-623.14 436.5,-613.14 433,-623.14 440,-623.14"/>
</g>
<!-- 100100 -->
<g id="node55" class="node">
<title>100100</title>
<ellipse fill="lightgrey" stroke="black" cx="503.5" cy="-810" rx="38.19" ry="18"/>
<text text-anchor="middle" x="503.5" y="-806.3" font-family="Times,serif" font-size="14.00">(cc 1 1)</text>
</g>
<!-- 10010&#45;&gt;100100 -->
<g id="edge54" class="edge">
<title>10010&#45;&gt;100100</title>
<path fill="none" stroke="black" d="M503.5,-863.7C503.5,-856.41 503.5,-847.73 503.5,-839.54"/>
<polygon fill="black" stroke="black" points="507,-839.62 503.5,-829.62 500,-839.62 507,-839.62"/>
</g>
<!-- 100101 -->
<g id="node56" class="node">
<title>100101</title>
<text text-anchor="middle" x="583.5" y="-806.3" font-family="Times,serif" font-size="14.00" fill="indianred">(cc &#45;4 2)</text>
</g>
<!-- 10010&#45;&gt;100101 -->
<g id="edge55" class="edge">
<title>10010&#45;&gt;100101</title>
<path fill="none" stroke="black" d="M520.86,-865.81C534.76,-853.64 554.11,-836.72 567.61,-824.9"/>
<polygon fill="black" stroke="black" points="569.89,-827.56 575.11,-818.34 565.28,-822.29 569.89,-827.56"/>
</g>
<!-- 1001000 -->
<g id="node57" class="node">
<title>1001000</title>
<text text-anchor="middle" x="503.5" y="-734.3" font-family="Times,serif" font-size="14.00" fill="indianred">(cc 1 0)</text>
</g>
<!-- 100100&#45;&gt;1001000 -->
<g id="edge56" class="edge">
<title>100100&#45;&gt;1001000</title>
<path fill="none" stroke="black" d="M503.5,-791.7C503.5,-780.99 503.5,-767.28 503.5,-756.53"/>
<polygon fill="black" stroke="black" points="507,-756.8 503.5,-746.8 500,-756.8 507,-756.8"/>
</g>
<!-- 1001001 -->
<g id="node58" class="node">
<title>1001001</title>
<ellipse fill="lightgreen" stroke="black" cx="581.5" cy="-738" rx="38.19" ry="18"/>
<text text-anchor="middle" x="581.5" y="-734.3" font-family="Times,serif" font-size="14.00">(cc 0 1)</text>
</g>
<!-- 100100&#45;&gt;1001001 -->
<g id="edge57" class="edge">
<title>100100&#45;&gt;1001001</title>
<path fill="none" stroke="black" d="M520.81,-793.46C531.11,-784.22 544.37,-772.32 555.87,-762"/>
<polygon fill="black" stroke="black" points="558.01,-764.79 563.11,-755.5 553.33,-759.58 558.01,-764.79"/>
</g>
<!-- 10010011 -->
<g id="node59" class="node">
<title>10010011</title>
<text text-anchor="middle" x="581.5" y="-662.3" font-family="Times,serif" font-size="14.00">1</text>
</g>
<!-- 1001001&#45;&gt;10010011 -->
<g id="edge58" class="edge">
<title>1001001&#45;&gt;10010011</title>
<path fill="none" stroke="black" d="M581.5,-719.7C581.5,-712.21 581.5,-703.26 581.5,-694.88"/>
<polygon fill="black" stroke="black" points="585,-695.14 581.5,-685.14 578,-695.14 585,-695.14"/>
</g>
</g>
</svg>
